<svg viewBox="0 0 200 200" xmlns="http://www.w3.org/2000/svg">
  <path fill="#38BDF8" fill-opacity="0.2" d="M45.3,-75.3C58.3,-67.3,68.3,-53.9,75.2,-39C82.1,-24.1,85.9,-7.7,83.1,7.5C80.3,22.7,71,36.7,59.4,47.4C47.9,58.1,34.1,65.5,19.2,70.7C4.3,75.9,-11.7,79,-27.1,76.2C-42.5,73.5,-57.3,65,-68.3,52.3C-79.3,39.7,-86.5,22.8,-87.8,5.5C-89.1,-11.9,-84.5,-29.7,-74.6,-43.7C-64.7,-57.7,-49.5,-67.9,-34.5,-74.7C-19.5,-81.5,-4.9,-84.9,9.2,-81.1C23.3,-77.3,32.3,-83.3,45.3,-75.3Z" transform="translate(100 100)" />
</svg>

