<svg viewBox="0 0 200 200" xmlns="http://www.w3.org/2000/svg">
  <path fill="#38BDF8" fill-opacity="0.2" d="M39.9,-65.7C51.1,-58.5,59.2,-46.3,65.8,-33C72.4,-19.7,77.5,-5.3,76.8,9.2C76.1,23.7,69.6,38.3,58.9,48.4C48.2,58.5,33.3,64.1,18.3,68.5C3.2,72.9,-12,76.1,-25.6,72.6C-39.2,69.1,-51.1,58.9,-60.3,46.2C-69.5,33.5,-76,18.3,-77.1,2.5C-78.3,-13.3,-74.1,-29.7,-64.8,-41.9C-55.5,-54.1,-41.1,-62.1,-27.4,-67.5C-13.7,-72.9,-0.7,-75.7,11.9,-73.3C24.5,-70.9,28.7,-72.9,39.9,-65.7Z" transform="translate(100 100)" />
</svg>

